PathFileType	4	(X/Y/Z)	OpenSim_Sub02_CSStiffKnee_Accel.trc
DataRate	CameraRate	NumFrames	NumMarkers	Units	OrigDataRate	OrigDataStartFrame	OrigNumFrames
100	100	20	8	m	100	862	6891
Frame#	Time	torso_imu_offset_imu	pelvis_imu_offset_imu	tibia_r_imu_offset_imu	femur_r_imu_offset_imu	tibia_l_imu_offset_imu	femur_l_imu_offset_imu	toes_r_imu_offset_imu	toes_l_imu_offset_imu
				X1	Y1	Z1	X2	Y2	Z2	X3	Y3	Z3	X4	Y4	Z4	X5	Y5	Z5	X6	Y6	Z6	X7	Y7	Z7	X8		Y8	Z8	

862	8.61000000	8.63365953	-1.14110743	6.66985175	9.12685375	-0.26262714	3.10798641	10.68413362	0.12667798	1.92229857	9.37296588	-3.11231872	-0.05566583	13.84736345	-3.04769675	5.69936792	11.27202419	-0.06538587	-0.72844603	5.64126099	0.25954017	9.01098788	43.11069415	-1.50506474	22.43870369
863	8.62000000	9.91606170	-0.90067997	7.11664172	10.15377806	-0.92142483	2.46226309	11.71542770	0.09777232	2.06474866	9.82691689	-3.64977793	0.17539308	16.70798537	-10.97035628	6.77096516	12.54293643	0.10240220	-0.84301732	5.60701686	-0.23514526	9.33265297	-10.54458248	-4.08328731	5.95473314
864	8.63000000	10.83750475	-0.46360960	7.62688270	10.99575370	-0.79559497	2.39302678	13.12506119	0.07864403	3.21788378	10.73882915	-3.96239879	0.55660611	14.20724064	-19.95802868	1.72436466	12.13436088	-0.34283178	-0.11872893	5.20414457	-0.74916902	9.69220675	1.63454762	-2.12350649	17.15681668
865	8.64000000	10.50196751	-0.15708355	7.58483058	11.32118866	-0.57394582	2.29820606	13.77883937	0.00832930	3.30434455	11.37576585	-3.92869098	0.96369980	7.61290418	-14.18741167	2.95751865	13.16593330	-2.10538083	0.40139939	5.37513517	-0.31925773	9.68144382	3.64900092	3.87701363	11.33507013
866	8.65000000	9.68760597	-0.34033432	7.72701542	11.41351007	-0.45147407	2.30717369	13.73125394	-0.04758275	3.22506581	10.91432046	-3.35467838	1.72557005	4.56276252	-6.99073542	5.09371393	13.12354417	-4.58659479	-0.68485466	5.08935899	0.09944956	10.21799678	3.38176296	2.47544858	13.86877858
867	8.66000000	9.49631596	-0.30276062	8.17305242	11.34332804	0.14615324	2.53479687	13.95364968	-0.10116470	3.77229853	10.39307450	-2.88621546	2.52811754	6.75369778	-5.14067849	-1.57042626	11.26588345	-6.44785326	-1.99387317	4.82678222	-0.61090890	10.50304480	1.24577911	-0.08324881	11.73835021
868	8.67000000	9.51673300	0.08801724	8.23778585	11.07961116	0.42004023	2.73056189	15.22517489	-0.31565608	2.40667052	10.45873987	-2.61496579	2.92137206	10.35577277	-0.88617438	-0.94642184	9.58946422	-6.81122543	-2.90570493	4.52775071	-0.99970154	10.58212791	5.08037874	3.41370146	12.17880224
869	8.68000000	8.99075667	0.32105766	8.29001662	10.37065084	-0.05942433	2.92003530	16.73326215	-1.46173879	0.53645674	10.65268512	-1.75804013	3.11564224	12.28856411	4.80042261	6.10947074	9.15775734	-5.07863308	-3.02964978	4.41692230	-0.48576419	10.30305138	5.78577857	-1.31285818	11.33978274
870	8.69000000	8.11971905	0.34296176	8.37601281	9.36263532	-0.75124355	3.28318279	16.49380863	-2.04020421	1.62531657	10.43612107	-1.02386564	2.94892969	11.25734735	4.17197520	5.15782072	8.63419430	-2.44662466	-2.11601559	4.87041168	-1.78465078	9.86285394	4.70667529	-0.19410474	11.58584728
871	8.70000000	7.32852880	0.37038712	8.09994436	8.71162337	-1.51662388	3.65208406	14.19751952	-0.39486399	1.72162907	9.79305819	-0.78285176	2.69761672	7.63570006	-1.99559934	1.22393147	8.42906235	-0.25752463	-0.74868724	7.26061713	-2.46692332	9.92595224	4.38787092	1.09661535	11.83441976
872	8.71000000	6.80230272	0.47043627	7.78146213	8.28866878	-2.03453524	3.74887476	12.04294379	1.56174745	1.07604650	9.15853364	-0.22917315	2.66321921	6.87840022	-4.78522655	2.03070327	8.14385283	0.21806073	-0.73008237	11.42201702	-0.81948309	10.06071953	4.48883728	0.55962674	11.60097258
873	8.72000000	6.53447329	0.61681998	7.64463891	8.15481737	-2.20634607	3.71839152	10.44915014	2.75488167	1.92961461	8.85819249	0.33243363	2.62123797	7.68046141	-3.29667899	0.16019259	7.74114162	-0.60925286	-0.49051489	15.01882822	1.19816275	11.27765621	4.34068518	0.91222064	11.48969941
874	8.73000000	6.50585634	0.80325192	7.33342212	8.31651688	-2.02115557	3.61419685	8.77888243	4.01628890	3.37359881	9.00390166	0.71552082	2.17761710	8.64117163	-2.13103056	-1.74074009	7.88876612	-1.68554517	-1.35752398	19.20353064	3.45268729	11.84233882	4.31593823	1.19734638	11.57817468
875	8.74000000	6.82399278	0.89201008	7.05023321	8.57859346	-1.70099196	3.48255436	6.88186417	5.83137628	2.99030116	9.91004869	0.73376014	1.90652637	10.68691056	-3.62405537	-0.54188962	8.89722942	-2.37538578	-2.33337489	16.30274210	2.62061278	14.91236149	3.77542273	1.15863879	11.83887098
876	8.75000000	7.60766185	0.97078554	7.03797345	8.99954594	-1.31467945	3.31694852	4.87135013	8.64712569	0.75805650	11.37437428	0.36193397	2.07246481	11.23465020	-3.87451540	-0.34606948	9.83451090	-2.31746297	-3.14626182	7.06092994	-1.84593495	21.91289331	3.45853215	1.09215370	12.12295532
877	8.76000000	8.73792521	1.03959722	7.43573147	9.70920861	-1.03494179	3.19687920	3.85345034	11.33259388	-1.51428888	12.80599624	-0.42765834	2.19720783	11.19435508	-2.28207405	0.64507972	10.68091279	-1.38883804	-3.68517102	1.98072293	-2.17591270	23.07307147	3.82312268	0.29435601	12.09116878
878	8.77000000	9.79957933	1.00990051	7.48594523	10.62362696	-0.72882072	3.24473164	4.07191574	12.09553099	-0.47242148	13.65645092	-1.34888002	1.94221928	11.37752446	-0.86636412	1.49151438	10.44031477	-0.70171237	-3.71297211	3.57933915	-4.40244739	20.67373470	3.87696934	0.18875309	12.09408536
879	8.78000000	10.52180356	0.90730849	7.87945879	11.49528145	-0.49939589	3.25109315	3.63318723	12.06866275	2.26152866	13.73192743	-2.24908056	1.64331209	10.72052013	0.07272463	1.19540608	9.86446014	-0.89407726	-3.44619737	0.00005364	-9.41379796	15.73411526	4.04705494	0.24598010	12.01834232
880	8.79000000	10.60704694	0.82221442	8.29966942	11.99873977	-0.41343048	3.07061527	2.15104705	13.59557316	4.99187621	12.95081637	-3.18208472	1.53160935	10.48716354	-0.43635207	0.79569821	9.86401816	-1.21902706	-3.04120983	1.62379025	-12.27716266	13.81872746	3.40593664	0.64264063	12.24537930
881	8.80000000	9.92704172	0.72576695	8.32064294	12.01738360	-0.54706849	2.99601534	1.70373830	14.04529031	5.12475318	12.01033040	-3.73700250	1.73629221	10.46247196	-1.68181627	0.08939218	9.83697733	-1.57331354	-2.58063406	0.34189320	-13.75076423	11.93410843	3.67414830	0.65312229	12.09831495
